<?xml version="1.0" encoding="utf-8"?>
<!-- Generator: Adobe Illustrator 17.0.0, SVG Export Plug-In . SVG Version: 6.00 Build 0)  -->
<!DOCTYPE svg PUBLIC "-//W3C//DTD SVG 1.1//EN" "http://www.w3.org/Graphics/SVG/1.1/DTD/svg11.dtd">
<svg version="1.1" id="Layer_1" xmlns="http://www.w3.org/2000/svg" xmlns:xlink="http://www.w3.org/1999/xlink" x="0px" y="0px"
	 width="453.241px" height="94.907px" viewBox="0 0 453.241 94.907" enable-background="new 0 0 453.241 94.907"
	 xml:space="preserve">
<g>
	<path fill="#12A44A" d="M442.078,62.145c-0.993-0.948-3.44-3.341-6.817-5.52c3.376-2.184,5.824-4.573,6.817-5.521
		c-1.254-0.553-4.369-1.959-8.287-2.853l0,0c2.426-3.209,3.906-6.289,4.515-7.525c-1.373-0.084-4.779-0.34-8.769,0.161l0,0l0,0
		c1.183-3.843,1.529-7.246,1.674-8.614c-1.318,0.384-4.609,1.312-8.184,3.144l0,0c-0.202-4.014-1.045-7.33-1.368-8.662
		c-1.106,0.812-3.886,2.808-6.616,5.755c-1.566-3.703-3.492-6.529-4.251-7.673c-0.764,1.144-2.686,3.969-4.252,7.673
		c-2.733-2.948-5.509-4.944-6.613-5.755c-0.328,1.333-1.168,4.648-1.371,8.665c-3.575-1.832-6.867-2.76-8.183-3.148
		c0.147,1.368,0.489,4.772,1.671,8.614l0,0v0l0,0c-3.988-0.5-7.394-0.245-8.766-0.156c0.606,1.231,2.092,4.311,4.513,7.52l0,0l0,0
		c-3.914,0.895-7.028,2.3-8.286,2.853c0.993,0.948,3.44,3.337,6.814,5.521c-3.374,2.179-5.821,4.572-6.814,5.52
		c1.258,0.553,4.372,1.958,8.286,2.852c-2.42,3.209-3.906,6.289-4.513,7.527c1.373,0.084,4.779,0.341,8.767-0.158
		c-1.183,3.842-1.525,7.245-1.671,8.61c1.316-0.385,4.608-1.311,8.183-3.141h0c0.202,4.011,1.043,7.327,1.371,8.662
		c1.104-0.815,3.88-2.809,6.613-5.754h0.001c1.565,3.701,3.488,6.528,4.252,7.671c0.759-1.142,2.685-3.967,4.251-7.671
		c2.73,2.945,5.51,4.939,6.616,5.754c0.324-1.336,1.166-4.651,1.368-8.662l0,0v0c3.574,1.83,6.865,2.757,8.184,3.141
		c-0.145-1.365-0.491-4.768-1.674-8.61h0.001v0c3.989,0.499,7.395,0.242,8.768,0.158c-0.609-1.237-2.089-4.318-4.515-7.527
		C437.709,64.103,440.824,62.699,442.078,62.145z M386.319,56.625L386.319,56.625L386.319,56.625L386.319,56.625z M415.043,80.743
		L415.043,80.743L415.043,80.743L415.043,80.743z"/>
	<path fill="#45B649" d="M426.641,65.783c2.516,0.058,4.957-0.282,7.15-0.786c-1.357-1.791-3.014-3.62-4.973-5.19
		c2.379-0.803,4.558-1.959,6.444-3.181c-1.885-1.218-4.065-2.379-6.444-3.181c1.959-1.572,3.616-3.402,4.973-5.194
		c-2.193-0.504-4.634-0.841-7.15-0.782c1.309-2.147,2.239-4.435,2.896-6.583c-2.23,0.274-4.641,0.792-6.981,1.708l0,0
		c0.498-2.468,0.586-4.929,0.472-7.178c-2,1.026-4.091,2.34-5.977,3.996l0,0c-0.377-2.483-1.137-4.833-2.008-6.902
		c-1.532,1.65-3.05,3.594-4.252,5.798c-1.206-2.205-2.717-4.149-4.252-5.798c-0.873,2.073-1.631,4.419-2.009,6.902
		c-1.884-1.656-3.975-2.966-5.975-3.992c-0.115,2.246-0.027,4.713,0.469,7.175c-2.34-0.915-4.75-1.433-6.981-1.708
		c0.663,2.147,1.591,4.435,2.895,6.582l0,0l0,0l0,0c-2.51-0.059-4.953,0.278-7.149,0.782c1.361,1.792,3.013,3.621,4.973,5.194
		c-2.38,0.802-4.56,1.962-6.445,3.18c1.885,1.222,4.065,2.378,6.445,3.181v0l0,0c-1.961,1.57-3.613,3.4-4.974,5.191
		c2.195,0.504,4.639,0.844,7.149,0.786l0,0c-1.304,2.147-2.232,4.436-2.895,6.583c2.231-0.28,4.641-0.796,6.981-1.713
		c-0.496,2.469-0.584,4.932-0.469,7.182c2-1.027,4.091-2.341,5.975-3.998c0.379,2.484,1.136,4.83,2.009,6.906
		c1.535-1.655,3.046-3.598,4.252-5.803c1.202,2.205,2.72,4.148,4.252,5.803c0.871-2.076,1.631-4.422,2.008-6.906l0,0
		c1.886,1.657,3.977,2.971,5.976,3.998c0.114-2.25,0.026-4.713-0.472-7.182l0,0l0,0c2.341,0.917,4.752,1.434,6.982,1.713
		C428.879,70.219,427.95,67.93,426.641,65.783L426.641,65.783L426.641,65.783L426.641,65.783z"/>
	<path id="path41_1_" fill="#12A44A" d="M421.498,5.574h-2.072v13.004l-0.054,1.996h2.012l0.045-1.685
		c0.223,0.333,0.466,0.708,1.087,1.128c0.952,0.643,1.946,0.709,2.478,0.709c1.526,0,3.009-0.643,3.895-1.905
		c0.556-0.731,1.062-1.906,1.062-4.054c0-2.435-0.752-3.541-1.306-4.184c-1.016-1.152-2.447-1.418-3.555-1.418
		c-2.523,0-3.665,1.396-3.665,1.905V5.205L421.498,5.574z M427.761,14.902c0,1.815-0.642,4.318-3.21,4.318
		c-3.098,0-3.098-3.478-3.098-4.208c0-0.709,0-4.429,3.188-4.429C427.539,10.584,427.761,13.794,427.761,14.902z"/>
	<path id="path43_1_" fill="#12A44A" d="M431.546,24.574h1.88v-5.243c1,0.974,1.879,1.661,3.495,1.661
		c2.658,0,5.112-1.815,5.112-5.956c0-4.12-2.255-5.757-4.645-5.757c-0.906,0-2.735,0.325-3.774,2.073l-0.033-1.777h-2.103
		c0.044,1-0.053,1.21-0.053,1.696v13.574L431.546,24.574z M433.537,15.345c0-0.998,0-4.518,3.319-4.518
		c2.455,0,3.055,2.082,3.055,4.075c0,0.798-0.109,2.392-0.908,3.476c-0.708,0.975-1.815,1.086-2.344,1.086
		C433.738,19.464,433.537,16.696,433.537,15.345z"/>
	<path fill="#FFE400" d="M428.817,59.806c-1.616-1.297-3.439-2.415-5.486-3.181l0,0v-0.001c2.046-0.766,3.87-1.888,5.486-3.18
		c-1.963-0.665-4.058-1.089-6.242-1.111c1.66-1.423,2.994-3.096,4.065-4.864c-2.067,0.044-4.184,0.366-6.243,1.09v0
		c1.07-1.903,1.753-3.933,2.158-5.964c-1.927,0.752-3.806,1.776-5.492,3.162l0,0c0.357-2.154,0.299-4.295-0.013-6.345
		c-1.553,1.368-2.974,2.975-4.08,4.856h-0.001l0,0c-0.405-2.15-1.183-4.142-2.179-5.96c-0.995,1.818-1.777,3.81-2.179,5.96
		c-1.108-1.881-2.526-3.486-4.082-4.856c-0.314,2.05-0.366,4.19-0.012,6.345c-1.686-1.387-3.566-2.411-5.494-3.163
		c0.408,2.032,1.086,4.061,2.161,5.964v0.001c-2.059-0.724-4.18-1.045-6.247-1.09c1.073,1.768,2.41,3.441,4.069,4.864v0.001l0,0
		c-2.184,0.022-4.283,0.446-6.244,1.111c1.618,1.293,3.442,2.414,5.484,3.181l0,0c-2.042,0.767-3.867,1.884-5.484,3.182
		c1.961,0.664,4.059,1.088,6.244,1.109v0.001v0c-1.659,1.419-2.996,3.096-4.069,4.867c2.067-0.047,4.188-0.366,6.247-1.094
		c0.024-0.041,0.05-0.083,0.073-0.124l0.049,0.08c-0.041,0.015-0.082,0.031-0.123,0.045c-1.075,1.902-1.752,3.933-2.161,5.963
		c1.928-0.748,3.808-1.775,5.494-3.158c-0.354,2.152-0.303,4.29,0.011,6.342c1.556-1.369,2.974-2.975,4.082-4.854h0
		c0.402,2.148,1.184,4.14,2.178,5.958c0.997-1.818,1.775-3.81,2.179-5.958l0,0c1.107,1.879,2.527,3.485,4.08,4.854
		c0.313-2.052,0.37-4.19,0.013-6.342l0,0v0v0c1.686,1.383,3.564,2.41,5.492,3.158c-0.405-2.03-1.087-4.061-2.158-5.963
		c2.059,0.727,4.175,1.046,6.243,1.093c-1.071-1.771-2.405-3.447-4.066-4.867l0,0v0C424.76,60.895,426.854,60.468,428.817,59.806z"
		/>
	<path id="path117_1_" fill="#FFFFFF" d="M408.622,50.667c-1.119-2.004-2.525-3.613-4.103-4.91c0.335,2.014,1.028,4.036,2.196,6.006
		c-1.736-1.493-3.607-2.529-5.529-3.204c0.994,1.777,2.34,3.442,4.117,4.893c-2.146-0.81-4.26-1.143-6.295-1.119
		c1.546,1.329,3.374,2.431,5.54,3.191c-2.291-0.03-4.389,0.382-6.3,1.1c1.911,0.717,4.009,1.128,6.3,1.101
		c-2.166,0.759-3.995,1.863-5.54,3.19c2.034,0.024,4.148-0.307,6.295-1.12c-1.776,1.454-3.122,3.115-4.117,4.895
		c1.923-0.678,3.793-1.713,5.53-3.204c-1.169,1.971-1.863,3.993-2.198,6.009c1.578-1.299,2.983-2.909,4.103-4.909
		c-0.426,2.251-0.382,4.39-0.009,6.397c1.04-1.76,1.807-3.751,2.179-6.013c0.374,2.262,1.14,4.253,2.179,6.013
		c0.375-2.006,0.416-4.146-0.012-6.397c1.121,2,2.529,3.609,4.104,4.909c-0.331-2.016-1.029-4.038-2.201-6.009
		c1.741,1.492,3.613,2.527,5.535,3.204c-0.998-1.779-2.344-3.441-4.118-4.895c2.148,0.814,4.257,1.144,6.295,1.12
		c-1.547-1.327-3.377-2.431-5.54-3.195c2.291,0.032,4.388-0.379,6.297-1.096c-1.909-0.718-4.006-1.13-6.297-1.1
		c2.163-0.761,3.993-1.862,5.54-3.191c-2.037-0.024-4.147,0.309-6.296,1.119c1.775-1.452,3.122-3.116,4.119-4.893
		c-1.921,0.678-3.794,1.711-5.535,3.205c1.172-1.971,1.87-3.993,2.201-6.007c-1.575,1.296-2.983,2.907-4.104,4.909
		c0.427-2.256,0.386-4.395,0.011-6.398c-1.039,1.753-1.805,3.749-2.179,6.013c-0.372-2.264-1.138-4.26-2.178-6.013
		C408.241,46.272,408.196,48.409,408.622,50.667z"/>
</g>
<g>
	<text transform="matrix(1 0 0 1 7.686 58.5283)" fill="#8E9090" font-family="'Univers-Medium'" font-size="32">Upstream Technologies</text>
</g>
</svg>
