<?xml version="1.0" encoding="utf-8"?>
<!-- Generator: Adobe Illustrator 17.0.0, SVG Export Plug-In . SVG Version: 6.00 Build 0)  -->
<!DOCTYPE svg PUBLIC "-//W3C//DTD SVG 1.1//EN" "http://www.w3.org/Graphics/SVG/1.1/DTD/svg11.dtd">
<svg version="1.1" id="Layer_1" xmlns="http://www.w3.org/2000/svg" xmlns:xlink="http://www.w3.org/1999/xlink" x="0px" y="0px"
	 width="453.241px" height="275px" viewBox="0 0 453.241 275" enable-background="new 0 0 453.241 275" xml:space="preserve">
<g>
	<path fill="#12A44A" d="M298.604,135.006c-2.284-2.18-7.915-7.686-15.684-12.701c7.768-5.024,13.399-10.521,15.684-12.703
		c-2.884-1.272-10.051-4.506-19.067-6.565l0,0c5.581-7.382,8.987-14.469,10.388-17.312c-3.159-0.194-10.996-0.782-20.175,0.369l0,0
		l0,0c2.721-8.841,3.517-16.672,3.852-19.82c-3.033,0.883-10.605,3.019-18.828,7.234l0,0c-0.465-9.235-2.403-16.864-3.149-19.93
		c-2.544,1.867-8.94,6.46-15.221,13.242c-3.604-8.52-8.035-15.022-9.782-17.654c-1.758,2.631-6.181,9.133-9.784,17.653
		c-6.288-6.782-12.675-11.375-15.215-13.241c-0.754,3.066-2.688,10.694-3.153,19.937c-8.225-4.215-15.798-6.349-18.828-7.242
		c0.338,3.148,1.125,10.978,3.846,19.82l0,0v0.001l-0.001-0.001c-9.175-1.151-17.011-0.564-20.169-0.358
		c1.395,2.832,4.814,9.919,10.383,17.301l0,0l0,0c-9.006,2.058-16.17,5.292-19.064,6.565c2.285,2.181,7.915,7.678,15.677,12.703
		c-7.762,5.014-13.392,10.52-15.677,12.7c2.894,1.273,10.058,4.504,19.064,6.561c-5.569,7.383-8.986,14.47-10.383,17.317
		c3.159,0.192,10.995,0.783,20.17-0.363c-2.721,8.84-3.508,16.669-3.846,19.81c3.028-0.885,10.601-3.017,18.827-7.227h0.001
		c0.466,9.229,2.399,16.857,3.153,19.93c2.54-1.876,8.927-6.462,15.215-13.238h0.001c3.602,8.514,8.026,15.02,9.782,17.649
		c1.747-2.628,6.178-9.128,9.782-17.648c6.28,6.776,12.677,11.362,15.221,13.238c0.745-3.074,2.683-10.701,3.149-19.93l0,0v-0.001
		c8.223,4.211,15.795,6.342,18.828,7.227c-0.334-3.14-1.131-10.97-3.852-19.81h0.001v-0.001c9.178,1.147,17.015,0.557,20.173,0.364
		c-1.401-2.847-4.807-9.936-10.387-17.318C288.551,139.51,295.719,136.279,298.604,135.006z M170.317,122.306L170.317,122.306
		L170.317,122.306L170.317,122.306z M236.403,177.795L236.403,177.795L236.403,177.795L236.403,177.795z"/>
	<path fill="#45B649" d="M263.086,143.375c5.789,0.133,11.404-0.649,16.451-1.81c-3.122-4.122-6.934-8.329-11.442-11.941
		c5.474-1.847,10.488-4.507,14.826-7.319c-4.337-2.803-9.352-5.473-14.826-7.318c4.507-3.618,8.32-7.827,11.442-11.95
		c-5.047-1.159-10.661-1.935-16.451-1.798c3.012-4.941,5.15-10.204,6.663-15.145c-5.13,0.631-10.677,1.822-16.062,3.93l0,0
		c1.145-5.679,1.348-11.341,1.087-16.515c-4.602,2.361-9.413,5.383-13.751,9.194l0,0c-0.867-5.713-2.615-11.12-4.619-15.881
		c-3.525,3.797-7.017,8.268-9.782,13.341c-2.775-5.073-6.251-9.545-9.782-13.341c-2.009,4.769-3.752,10.167-4.622,15.881
		c-4.334-3.811-9.145-6.824-13.746-9.186c-0.265,5.167-0.063,10.842,1.079,16.508c-5.383-2.105-10.928-3.298-16.061-3.93
		c1.525,4.941,3.661,10.204,6.66,15.144l-0.001,0.001l0,0l0,0c-5.775-0.137-11.397,0.64-16.447,1.798
		c3.131,4.122,6.931,8.332,11.442,11.95c-5.476,1.844-10.491,4.513-14.828,7.317c4.337,2.812,9.353,5.472,14.829,7.319v0.001
		l-0.001-0.001c-4.512,3.612-8.312,7.823-11.443,11.942c5.049,1.16,10.673,1.942,16.447,1.809l0,0
		c-2.999,4.939-5.134,10.205-6.66,15.145c5.132-0.644,10.679-1.832,16.061-3.941c-1.142,5.681-1.344,11.347-1.079,16.524
		c4.602-2.363,9.412-5.387,13.746-9.198c0.872,5.716,2.614,11.112,4.622,15.889c3.531-3.807,7.009-8.278,9.782-13.35
		c2.765,5.073,6.257,9.544,9.782,13.35c2.004-4.776,3.752-10.173,4.619-15.889l0,0c4.338,3.811,9.149,6.835,13.75,9.198
		c0.263-5.177,0.059-10.844-1.086-16.524l0,0l0,0c5.387,2.109,10.933,3.3,16.064,3.941
		C268.237,153.581,266.098,148.315,263.086,143.375L263.086,143.375L263.086,143.375L263.086,143.375z"/>
	<path id="path41_1_" fill="#12A44A" d="M251.253,4.849h-4.767v29.918l-0.124,4.593h4.63l0.104-3.876
		c0.513,0.765,1.073,1.63,2.502,2.596c2.189,1.478,4.476,1.632,5.701,1.632c3.511,0,6.923-1.48,8.96-4.384
		c1.279-1.682,2.444-4.385,2.444-9.327c0-5.602-1.729-8.148-3.004-9.627c-2.338-2.65-5.631-3.262-8.179-3.262
		c-5.805,0-8.432,3.212-8.432,4.383V4L251.253,4.849z M265.664,26.311c0,4.177-1.476,9.936-7.386,9.936
		c-7.127,0-7.127-8.002-7.127-9.682c0-1.631,0-10.19,7.334-10.19C265.154,16.376,265.664,23.762,265.664,26.311z"/>
	<path id="path43_1_" fill="#12A44A" d="M274.373,48.564h4.324V36.5c2.301,2.242,4.324,3.821,8.041,3.821
		c6.116,0,11.763-4.175,11.763-13.704c0-9.479-5.188-13.246-10.687-13.246c-2.084,0-6.293,0.749-8.682,4.771l-0.076-4.089h-4.839
		c0.101,2.301-0.121,2.783-0.121,3.902v31.23L274.373,48.564z M278.953,27.33c0-2.295,0-10.394,7.636-10.394
		c5.648,0,7.028,4.789,7.028,9.375c0,1.835-0.252,5.504-2.088,7.997c-1.629,2.244-4.177,2.499-5.393,2.499
		C279.415,36.807,278.953,30.438,278.953,27.33z"/>
	<path fill="#FFE400" d="M268.094,129.624c-3.717-2.984-7.913-5.556-12.621-7.318l0,0v-0.002c4.707-1.763,8.904-4.343,12.621-7.317
		c-4.517-1.53-9.336-2.505-14.361-2.557c3.819-3.275,6.888-7.123,9.353-11.191c-4.756,0.102-9.625,0.843-14.363,2.507v-0.001
		c2.463-4.378,4.033-9.048,4.965-13.722c-4.435,1.73-8.756,4.085-12.635,7.276l0,0c0.822-4.957,0.689-9.881-0.029-14.597
		c-3.574,3.147-6.841,6.845-9.387,11.173h-0.001l0,0c-0.932-4.947-2.722-9.531-5.014-13.713c-2.289,4.182-4.088,8.766-5.013,13.713
		c-2.549-4.329-5.811-8.021-9.391-11.173c-0.723,4.717-0.841,9.641-0.027,14.597c-3.879-3.191-8.205-5.546-12.641-7.276
		c0.94,4.675,2.498,9.344,4.972,13.721v0.001c-4.737-1.665-9.617-2.405-14.372-2.507c2.468,4.068,5.544,7.917,9.362,11.19v0.001l0,0
		c-5.025,0.052-9.854,1.027-14.366,2.557c3.722,2.974,7.92,5.554,12.618,7.318l0,0c-4.698,1.764-8.897,4.335-12.618,7.32
		c4.511,1.527,9.339,2.502,14.366,2.551v0.002v0.001c-3.817,3.266-6.894,7.123-9.362,11.198c4.755-0.109,9.635-0.843,14.372-2.516
		c0.055-0.095,0.114-0.191,0.169-0.286l0.114,0.184c-0.094,0.035-0.188,0.07-0.283,0.103c-2.473,4.376-4.032,9.049-4.971,13.719
		c4.435-1.722,8.761-4.083,12.64-7.266c-0.814,4.951-0.696,9.871,0.026,14.591c3.581-3.151,6.843-6.844,9.392-11.168h0.001
		c0.924,4.942,2.724,9.526,5.012,13.708c2.293-4.182,4.085-8.765,5.014-13.708l0,0c2.547,4.324,5.814,8.018,9.388,11.168
		c0.72-4.722,0.852-9.639,0.029-14.592l0,0v-0.001v0.001c3.879,3.183,8.2,5.544,12.635,7.266c-0.932-4.671-2.502-9.342-4.965-13.719
		c4.738,1.672,9.607,2.407,14.363,2.515c-2.465-4.074-5.534-7.932-9.355-11.198l0,0v-0.001
		C258.758,132.128,263.577,131.146,268.094,129.624z"/>
	<path id="path117_1_" fill="#FFFFFF" d="M221.629,108.596c-2.575-4.61-5.809-8.314-9.439-11.296
		c0.77,4.634,2.366,9.286,5.053,13.818c-3.995-3.435-8.298-5.819-12.722-7.371c2.288,4.089,5.384,7.919,9.471,11.259
		c-4.938-1.864-9.802-2.631-14.483-2.575c3.556,3.058,7.764,5.593,12.747,7.343c-5.272-0.069-10.097,0.879-14.495,2.532
		c4.398,1.649,9.223,2.596,14.495,2.532c-4.984,1.746-9.192,4.287-12.747,7.339c4.681,0.054,9.544-0.706,14.483-2.578
		c-4.087,3.344-7.183,7.168-9.471,11.261c4.423-1.559,8.727-3.941,12.724-7.373c-2.69,4.535-4.286,9.188-5.056,13.826
		c3.63-2.99,6.863-6.693,9.439-11.294c-0.98,5.178-0.878,10.101-0.021,14.717c2.394-4.049,4.157-8.631,5.013-13.835
		c0.861,5.204,2.622,9.786,5.014,13.835c0.862-4.616,0.956-9.539-0.027-14.717c2.579,4.602,5.819,8.304,9.443,11.294
		c-0.762-4.638-2.366-9.291-5.064-13.826c4.004,3.432,8.314,5.814,12.735,7.373c-2.297-4.094-5.394-7.917-9.474-11.261
		c4.942,1.872,9.795,2.632,14.484,2.578c-3.559-3.053-7.77-5.593-12.746-7.35c5.272,0.074,10.095-0.873,14.488-2.522
		c-4.392-1.653-9.216-2.601-14.488-2.532c4.976-1.751,9.187-4.285,12.746-7.343c-4.687-0.056-9.541,0.71-14.486,2.575
		c4.083-3.34,7.183-7.17,9.477-11.259c-4.419,1.561-8.73,3.936-12.734,7.375c2.697-4.536,4.301-9.188,5.065-13.821
		c-3.624,2.982-6.864,6.687-9.443,11.295c0.982-5.191,0.887-10.111,0.025-14.719c-2.391,4.033-4.153,8.626-5.014,13.834
		c-0.855-5.208-2.618-9.802-5.011-13.834C220.753,98.485,220.649,103.403,221.629,108.596z"/>
</g>
<g>
	<text transform="matrix(1 0 0 1 53.1185 266.3617)" fill="#8E9090" font-family="'Univers-Medium'" font-size="32">Upstream Technologies</text>
</g>
</svg>
